<?xml version="1.0" encoding="utf-8"?>
<!-- Generator: Adobe Illustrator 23.0.4, SVG Export Plug-In . SVG Version: 6.00 Build 0)  -->
<svg version="1.1" id="Layer_1" xmlns="http://www.w3.org/2000/svg" xmlns:xlink="http://www.w3.org/1999/xlink" x="0px" y="0px"
	 viewBox="0 0 200.9 200.9" style="enable-background:new 0 0 200.9 200.9;" xml:space="preserve">
<path d="M188.4,129H12.5c-6.6,0-12-5.4-12-12V73.7c0-6.6,5.4-12,12-12h175.9c6.6,0,12,5.4,12,12V117C200.4,123.6,195,129,188.4,129z
	 M69.2,104.4c-1.5,1-3,1.8-4.4,2.5s-3.2,1.3-5.3,1.9c-2.1,0.6-4.3,0.9-6.7,0.9c-2.9,0-5.6-0.6-7.9-1.8c-2.3-1.2-4.2-2.8-5.5-4.9
	c-1.3-2.1-2-4.3-2-6.8c0-2.8,0.8-5.2,2.2-7.3c1.5-2.1,3.5-3.7,5.9-4.8s5.1-1.7,7.9-1.7c3.2,0,6,0.5,8.3,1.5c2.4,1,4.7,2.2,7.2,3.7
	V74.7C62,72.2,55.7,71,50.2,71c-3.7,0-7.2,0.5-10.6,1.5c-3.3,1-6.3,2.5-8.9,4.6c-2.6,2.1-4.6,4.7-6.1,7.9c-1.5,3.2-2.2,6.8-2.2,11
	c0,3.7,0.6,7,1.8,10.1s3.1,5.7,5.6,8c2.5,2.3,5.4,4,8.8,5.2c3.4,1.2,7.2,1.8,11.4,1.8c2.3,0,4.5-0.1,6.7-0.4s4.3-0.7,6.4-1.4
	s4.2-1.5,6.2-2.5V104.4z M125.8,71.7H75.4v11.8h17.9v36.9h14.7V83.5h17.9V71.7z M160.2,71.7H144l-21.6,48.7h15l4-9.9h21.2l4,9.9h15
	L160.2,71.7z M145,102l7.2-17.8l7.1,17.8H145z"/>
</svg>
